 <svg 
    xmlns="http://www.w3.org/2000/svg">
    <symbol id="search" viewBox="0 0 18 20">
        <path fillRule="evenodd" clipRule="evenodd" d="M8.15625 3.17188C5.04965 3.17188 2.53125 5.83018 2.53125 9.10938C2.53125 12.3886 5.04965 15.0469 8.15625 15.0469C11.2629 15.0469 13.7812 12.3886 13.7812 9.10938C13.7812 5.83018 11.2629 3.17188 8.15625 3.17188ZM1.96875 9.10938C1.96875 5.50227 4.73899 2.57812 8.15625 2.57812C11.5735 2.57812 14.3438 5.50227 14.3438 9.10938C14.3438 12.7165 11.5735 15.6406 8.15625 15.6406C4.73899 15.6406 1.96875 12.7165 1.96875 9.10938Z" fill="currentColor"/>
        <path fillRule="evenodd" clipRule="evenodd" d="M12.1332 13.3081C12.243 13.1922 12.4211 13.1922 12.5309 13.3081L15.9481 16.9152C16.058 17.0312 16.058 17.2191 15.9481 17.3351C15.8383 17.451 15.6602 17.451 15.5504 17.3351L12.1332 13.728C12.0233 13.6121 12.0233 13.4241 12.1332 13.3081Z" fill="currentColor"/>
    </symbol>
    <symbol id="cross" viewBox="0 0 20 20">
        <path fill-rule="evenodd" clip-rule="evenodd" d="M0.516566 0.0385499C0.249476 0.115593 0.000753061 0.471257 0.000753061 0.776185C0.000753061 1.11453 -0.166574 0.934844 4.48719 5.59381L8.88946 10.001L4.48692 14.4082C0.435521 18.4639 0.0807041 18.8294 0.0383449 18.9909C-0.125074 19.6134 0.394373 20.133 1.01671 19.9696C1.17817 19.9272 1.54358 19.5723 5.59807 15.5197L10.004 11.1159L14.4099 15.5197C18.4644 19.5723 18.8298 19.9272 18.9912 19.9696C19.6136 20.133 20.133 19.6134 19.9696 18.9909C19.9272 18.8294 19.5724 18.4639 15.521 14.4082L11.1185 10.001L15.521 5.59381C19.5724 1.53813 19.9272 1.17262 19.9696 1.01111C20.133 0.388585 19.6136 -0.131015 18.9912 0.0324521C18.8298 0.0748238 18.4644 0.429745 14.4099 4.48234L10.004 8.88618L5.59807 4.48261C1.77972 0.666268 1.17134 0.0734167 1.03586 0.0369473C0.851024 -0.0128121 0.692919 -0.012343 0.516566 0.0385499Z" fill="currentColor"/>
    </symbol>
    <symbol id="geo" viewBox="0 0 20 20">
        <path fillRule="evenodd" clipRule="evenodd" d="M8.24807 18.6788L8.25007 18.6778L8.25506 18.6744L8.27005 18.6629L8.32899 18.6206C8.37893 18.5838 8.45186 18.53 8.54376 18.4593C8.72756 18.319 8.98829 18.1124 9.29946 17.8471C10.1163 17.1512 10.8801 16.3959 11.5845 15.5872C13.2368 13.6827 14.953 10.9644 14.953 7.85675C14.953 6.00006 14.2168 4.21803 12.9061 2.90391C12.2583 2.25352 11.4879 1.73722 10.6391 1.38474C9.79028 1.03227 8.87991 0.850565 7.96038 0.850098C7.04088 0.8505 6.13053 1.03212 5.28173 1.38451C4.43294 1.73691 3.66245 2.25311 3.01461 2.90341C1.70271 4.22054 0.966893 6.00139 0.967774 7.85725C0.967774 10.9644 2.68396 13.6827 4.33621 15.5872C5.04065 16.3959 5.80445 17.1512 6.62129 17.8471C6.93296 18.1124 7.19319 18.319 7.37699 18.4593C7.46715 18.5286 7.55822 18.5966 7.6502 18.6634L7.66619 18.6744L7.67068 18.6778L7.67268 18.6788C7.845 18.7998 8.07575 18.7998 8.24807 18.6788ZM10.4577 7.81892C10.4577 8.47901 10.1946 9.11206 9.72628 9.57882C9.25793 10.0456 8.62272 10.3078 7.96038 10.3078C7.29804 10.3078 6.66282 10.0456 6.19448 9.57882C5.72613 9.11206 5.46302 8.47901 5.46302 7.81892C5.46302 7.15883 5.72613 6.52578 6.19448 6.05903C6.66282 5.59228 7.29804 5.33006 7.96038 5.33006C8.62272 5.33006 9.25793 5.59228 9.72628 6.05903C10.1946 6.52578 10.4577 7.15883 10.4577 7.81892Z" fill="#424F5E"/>
    </symbol>
  </svg>



